<svg width="177" height="40" viewBox="0 0 177 40" fill="none" xmlns="http://www.w3.org/2000/svg">
<rect width="8.53848" height="39.8462" fill="#0E0E0E"/>
<rect x="28.4619" width="8.53848" height="39.8462" fill="white"/>
<rect x="14.2305" y="19.9231" width="14.2308" height="5.69232" fill="#0E0E0E"/>
<path d="M49.448 8.71746C49.2453 8.34413 48.952 8.06146 48.568 7.86946C48.1947 7.66679 47.752 7.56546 47.24 7.56546C46.3547 7.56546 45.6453 7.85879 45.112 8.44546C44.5787 9.02146 44.312 9.79479 44.312 10.7655C44.312 11.8001 44.5893 12.6108 45.144 13.1975C45.7093 13.7735 46.4827 14.0615 47.464 14.0615C48.136 14.0615 48.7013 13.8908 49.16 13.5495C49.6293 13.2081 49.9707 12.7175 50.184 12.0775H46.712V10.0615H52.664V12.6055C52.4613 13.2881 52.1147 13.9228 51.624 14.5095C51.144 15.0961 50.5307 15.5708 49.784 15.9335C49.0373 16.2961 48.1947 16.4775 47.256 16.4775C46.1467 16.4775 45.1547 16.2375 44.28 15.7575C43.416 15.2668 42.7387 14.5895 42.248 13.7255C41.768 12.8615 41.528 11.8748 41.528 10.7655C41.528 9.65613 41.768 8.66946 42.248 7.80546C42.7387 6.93079 43.416 6.25346 44.28 5.77346C45.144 5.28279 46.1307 5.03746 47.24 5.03746C48.584 5.03746 49.7147 5.36279 50.632 6.01346C51.56 6.66413 52.1733 7.56546 52.472 8.71746H49.448ZM56.9155 8.95746C57.2355 8.46679 57.6355 8.08279 58.1155 7.80546C58.5955 7.51746 59.1288 7.37346 59.7155 7.37346V10.2695H58.9635C58.2808 10.2695 57.7688 10.4188 57.4275 10.7175C57.0862 11.0055 56.9155 11.5175 56.9155 12.2535V16.3975H54.1795V7.46946H56.9155V8.95746ZM65.0873 16.5255C64.2126 16.5255 63.4233 16.3388 62.7193 15.9655C62.0259 15.5921 61.4766 15.0588 61.0713 14.3655C60.6766 13.6721 60.4793 12.8615 60.4793 11.9335C60.4793 11.0161 60.6819 10.2108 61.0872 9.51746C61.4926 8.81346 62.0473 8.27479 62.7513 7.90146C63.4553 7.52813 64.2446 7.34146 65.1193 7.34146C65.9939 7.34146 66.7833 7.52813 67.4873 7.90146C68.1913 8.27479 68.7459 8.81346 69.1513 9.51746C69.5566 10.2108 69.7593 11.0161 69.7593 11.9335C69.7593 12.8508 69.5513 13.6615 69.1353 14.3655C68.7299 15.0588 68.1699 15.5921 67.4553 15.9655C66.7513 16.3388 65.9619 16.5255 65.0873 16.5255ZM65.0873 14.1575C65.6099 14.1575 66.0526 13.9655 66.4153 13.5815C66.7886 13.1975 66.9753 12.6481 66.9753 11.9335C66.9753 11.2188 66.7939 10.6695 66.4313 10.2855C66.0793 9.90146 65.6419 9.70946 65.1193 9.70946C64.5859 9.70946 64.1433 9.90146 63.7913 10.2855C63.4393 10.6588 63.2633 11.2081 63.2633 11.9335C63.2633 12.6481 63.4339 13.1975 63.7753 13.5815C64.1273 13.9655 64.5646 14.1575 65.0873 14.1575ZM80.0268 7.46946V16.3975H77.2908V15.1815C77.0134 15.5761 76.6348 15.8961 76.1548 16.1415C75.6854 16.3761 75.1628 16.4935 74.5868 16.4935C73.9041 16.4935 73.3014 16.3441 72.7788 16.0455C72.2561 15.7361 71.8508 15.2935 71.5628 14.7175C71.2748 14.1415 71.1308 13.4641 71.1308 12.6855V7.46946H73.8508V12.3175C73.8508 12.9148 74.0054 13.3788 74.3148 13.7095C74.6241 14.0401 75.0401 14.2055 75.5628 14.2055C76.0961 14.2055 76.5174 14.0401 76.8268 13.7095C77.1361 13.3788 77.2908 12.9148 77.2908 12.3175V7.46946H80.0268ZM84.728 8.73346C84.9947 8.31746 85.3627 7.98146 85.832 7.72546C86.3013 7.46946 86.8507 7.34146 87.48 7.34146C88.216 7.34146 88.8827 7.52813 89.48 7.90146C90.0773 8.27479 90.5467 8.80813 90.888 9.50146C91.24 10.1948 91.416 11.0001 91.416 11.9175C91.416 12.8348 91.24 13.6455 90.888 14.3495C90.5467 15.0428 90.0773 15.5815 89.48 15.9655C88.8827 16.3388 88.216 16.5255 87.48 16.5255C86.8613 16.5255 86.312 16.3975 85.832 16.1415C85.3627 15.8855 84.9947 15.5548 84.728 15.1495V20.6535H81.992V7.46946H84.728V8.73346ZM88.632 11.9175C88.632 11.2348 88.44 10.7015 88.056 10.3175C87.6827 9.92279 87.2187 9.72546 86.664 9.72546C86.12 9.72546 85.656 9.92279 85.272 10.3175C84.8987 10.7121 84.712 11.2508 84.712 11.9335C84.712 12.6161 84.8987 13.1548 85.272 13.5495C85.656 13.9441 86.12 14.1415 86.664 14.1415C87.208 14.1415 87.672 13.9441 88.056 13.5495C88.44 13.1441 88.632 12.6001 88.632 11.9175Z" fill="#0E0E0E"/>
<path d="M48.632 32.033L46.964 30.365C46.556 30.477 46.14 30.533 45.716 30.533C44.94 30.533 44.232 30.353 43.592 29.993C42.952 29.625 42.444 29.117 42.068 28.469C41.7 27.813 41.516 27.077 41.516 26.261C41.516 25.445 41.7 24.713 42.068 24.065C42.444 23.409 42.952 22.901 43.592 22.541C44.232 22.173 44.94 21.989 45.716 21.989C46.5 21.989 47.212 22.173 47.852 22.541C48.492 22.901 48.996 23.405 49.364 24.053C49.732 24.701 49.916 25.437 49.916 26.261C49.916 27.061 49.74 27.781 49.388 28.421C49.036 29.061 48.552 29.565 47.936 29.933L50.048 32.033H48.632ZM42.632 26.261C42.632 26.925 42.764 27.509 43.028 28.013C43.3 28.517 43.668 28.905 44.132 29.177C44.604 29.449 45.132 29.585 45.716 29.585C46.3 29.585 46.824 29.449 47.288 29.177C47.76 28.905 48.128 28.517 48.392 28.013C48.664 27.509 48.8 26.925 48.8 26.261C48.8 25.589 48.664 25.005 48.392 24.509C48.128 24.005 47.764 23.617 47.3 23.345C46.836 23.073 46.308 22.937 45.716 22.937C45.124 22.937 44.596 23.073 44.132 23.345C43.668 23.617 43.3 24.005 43.028 24.509C42.764 25.005 42.632 25.589 42.632 26.261ZM57.213 23.873V30.449H56.121V29.477C55.913 29.813 55.621 30.077 55.245 30.269C54.877 30.453 54.469 30.545 54.021 30.545C53.509 30.545 53.049 30.441 52.641 30.233C52.233 30.017 51.909 29.697 51.669 29.273C51.437 28.849 51.321 28.333 51.321 27.725V23.873H52.401V27.581C52.401 28.229 52.565 28.729 52.893 29.081C53.221 29.425 53.669 29.597 54.237 29.597C54.821 29.597 55.281 29.417 55.617 29.057C55.953 28.697 56.121 28.173 56.121 27.485V23.873H57.213ZM58.6488 27.137C58.6488 26.465 58.7848 25.877 59.0568 25.373C59.3288 24.861 59.7008 24.465 60.1728 24.185C60.6528 23.905 61.1848 23.765 61.7688 23.765C62.3448 23.765 62.8448 23.889 63.2688 24.137C63.6928 24.385 64.0088 24.697 64.2168 25.073V23.873H65.3208V30.449H64.2168V29.225C64.0008 29.609 63.6768 29.929 63.2448 30.185C62.8208 30.433 62.3248 30.557 61.7568 30.557C61.1728 30.557 60.6448 30.413 60.1728 30.125C59.7008 29.837 59.3288 29.433 59.0568 28.913C58.7848 28.393 58.6488 27.801 58.6488 27.137ZM64.2168 27.149C64.2168 26.653 64.1168 26.221 63.9168 25.853C63.7168 25.485 63.4448 25.205 63.1008 25.013C62.7648 24.813 62.3928 24.713 61.9848 24.713C61.5768 24.713 61.2048 24.809 60.8688 25.001C60.5328 25.193 60.2648 25.473 60.0648 25.841C59.8648 26.209 59.7648 26.641 59.7648 27.137C59.7648 27.641 59.8648 28.081 60.0648 28.457C60.2648 28.825 60.5328 29.109 60.8688 29.309C61.2048 29.501 61.5768 29.597 61.9848 29.597C62.3928 29.597 62.7648 29.501 63.1008 29.309C63.4448 29.109 63.7168 28.825 63.9168 28.457C64.1168 28.081 64.2168 27.645 64.2168 27.149ZM68.2582 21.569V30.449H67.1662V21.569H68.2582ZM70.6833 22.805C70.4753 22.805 70.2993 22.733 70.1553 22.589C70.0113 22.445 69.9393 22.269 69.9393 22.061C69.9393 21.853 70.0113 21.677 70.1553 21.533C70.2993 21.389 70.4753 21.317 70.6833 21.317C70.8833 21.317 71.0513 21.389 71.1873 21.533C71.3313 21.677 71.4033 21.853 71.4033 22.061C71.4033 22.269 71.3313 22.445 71.1873 22.589C71.0513 22.733 70.8833 22.805 70.6833 22.805ZM71.2113 23.873V30.449H70.1193V23.873H71.2113ZM74.4044 24.773V28.649C74.4044 28.969 74.4724 29.197 74.6084 29.333C74.7444 29.461 74.9804 29.525 75.3164 29.525H76.1204V30.449H75.1364C74.5284 30.449 74.0724 30.309 73.7684 30.029C73.4644 29.749 73.3124 29.289 73.3124 28.649V24.773H72.4604V23.873H73.3124V22.217H74.4044V23.873H76.1204V24.773H74.4044ZM83.1075 23.873L79.1475 33.545H78.0195L79.3155 30.377L76.6635 23.873H77.8755L79.9395 29.201L81.9795 23.873H83.1075ZM95.8885 22.145V30.449H94.7965V24.257L92.0365 30.449H91.2685L88.4965 24.245V30.449H87.4045V22.145H88.5805L91.6525 29.009L94.7245 22.145H95.8885ZM103.74 26.909C103.74 27.117 103.728 27.337 103.704 27.569H98.4484C98.4884 28.217 98.7084 28.725 99.1084 29.093C99.5164 29.453 100.008 29.633 100.584 29.633C101.056 29.633 101.448 29.525 101.76 29.309C102.08 29.085 102.304 28.789 102.432 28.421H103.608C103.432 29.053 103.08 29.569 102.552 29.969C102.024 30.361 101.368 30.557 100.584 30.557C99.9604 30.557 99.4004 30.417 98.9044 30.137C98.4164 29.857 98.0324 29.461 97.7524 28.949C97.4724 28.429 97.3324 27.829 97.3324 27.149C97.3324 26.469 97.4684 25.873 97.7404 25.361C98.0124 24.849 98.3924 24.457 98.8804 24.185C99.3764 23.905 99.9444 23.765 100.584 23.765C101.208 23.765 101.76 23.901 102.24 24.173C102.72 24.445 103.088 24.821 103.344 25.301C103.608 25.773 103.74 26.309 103.74 26.909ZM102.612 26.681C102.612 26.265 102.52 25.909 102.336 25.613C102.152 25.309 101.9 25.081 101.58 24.929C101.268 24.769 100.92 24.689 100.536 24.689C99.9844 24.689 99.5124 24.865 99.1204 25.217C98.7364 25.569 98.5164 26.057 98.4604 26.681H102.612ZM111.182 26.909C111.182 27.117 111.17 27.337 111.146 27.569H105.89C105.93 28.217 106.15 28.725 106.55 29.093C106.958 29.453 107.45 29.633 108.026 29.633C108.498 29.633 108.89 29.525 109.202 29.309C109.522 29.085 109.746 28.789 109.874 28.421H111.05C110.874 29.053 110.522 29.569 109.994 29.969C109.466 30.361 108.81 30.557 108.026 30.557C107.402 30.557 106.842 30.417 106.346 30.137C105.858 29.857 105.474 29.461 105.194 28.949C104.914 28.429 104.774 27.829 104.774 27.149C104.774 26.469 104.91 25.873 105.182 25.361C105.454 24.849 105.834 24.457 106.322 24.185C106.818 23.905 107.386 23.765 108.026 23.765C108.65 23.765 109.202 23.901 109.682 24.173C110.162 24.445 110.53 24.821 110.786 25.301C111.05 25.773 111.182 26.309 111.182 26.909ZM110.054 26.681C110.054 26.265 109.962 25.909 109.778 25.613C109.594 25.309 109.342 25.081 109.022 24.929C108.71 24.769 108.362 24.689 107.978 24.689C107.426 24.689 106.954 24.865 106.562 25.217C106.178 25.569 105.958 26.057 105.902 26.681H110.054ZM113.955 24.773V28.649C113.955 28.969 114.023 29.197 114.159 29.333C114.295 29.461 114.531 29.525 114.867 29.525H115.671V30.449H114.687C114.079 30.449 113.623 30.309 113.319 30.029C113.015 29.749 112.863 29.289 112.863 28.649V24.773H112.011V23.873H112.863V22.217H113.955V23.873H115.671V24.773H113.955ZM119.786 26.261C119.786 25.445 119.97 24.713 120.338 24.065C120.706 23.409 121.206 22.897 121.838 22.529C122.478 22.161 123.186 21.977 123.962 21.977C124.874 21.977 125.67 22.197 126.35 22.637C127.03 23.077 127.526 23.701 127.838 24.509H126.53C126.298 24.005 125.962 23.617 125.522 23.345C125.09 23.073 124.57 22.937 123.962 22.937C123.378 22.937 122.854 23.073 122.39 23.345C121.926 23.617 121.562 24.005 121.298 24.509C121.034 25.005 120.902 25.589 120.902 26.261C120.902 26.925 121.034 27.509 121.298 28.013C121.562 28.509 121.926 28.893 122.39 29.165C122.854 29.437 123.378 29.573 123.962 29.573C124.57 29.573 125.09 29.441 125.522 29.177C125.962 28.905 126.298 28.517 126.53 28.013H127.838C127.526 28.813 127.03 29.433 126.35 29.873C125.67 30.305 124.874 30.521 123.962 30.521C123.186 30.521 122.478 30.341 121.838 29.981C121.206 29.613 120.706 29.105 120.338 28.457C119.97 27.809 119.786 27.077 119.786 26.261ZM130.555 24.941C130.747 24.565 131.019 24.273 131.371 24.065C131.731 23.857 132.167 23.753 132.679 23.753V24.881H132.391C131.167 24.881 130.555 25.545 130.555 26.873V30.449H129.463V23.873H130.555V24.941ZM139.94 26.909C139.94 27.117 139.928 27.337 139.904 27.569H134.648C134.688 28.217 134.908 28.725 135.308 29.093C135.716 29.453 136.208 29.633 136.784 29.633C137.256 29.633 137.648 29.525 137.96 29.309C138.28 29.085 138.504 28.789 138.632 28.421H139.808C139.632 29.053 139.28 29.569 138.752 29.969C138.224 30.361 137.568 30.557 136.784 30.557C136.16 30.557 135.6 30.417 135.104 30.137C134.616 29.857 134.232 29.461 133.952 28.949C133.672 28.429 133.532 27.829 133.532 27.149C133.532 26.469 133.668 25.873 133.94 25.361C134.212 24.849 134.592 24.457 135.08 24.185C135.576 23.905 136.144 23.765 136.784 23.765C137.408 23.765 137.96 23.901 138.44 24.173C138.92 24.445 139.288 24.821 139.544 25.301C139.808 25.773 139.94 26.309 139.94 26.909ZM138.812 26.681C138.812 26.265 138.72 25.909 138.536 25.613C138.352 25.309 138.1 25.081 137.78 24.929C137.468 24.769 137.12 24.689 136.736 24.689C136.184 24.689 135.712 24.865 135.32 25.217C134.936 25.569 134.716 26.057 134.66 26.681H138.812ZM140.973 27.137C140.973 26.465 141.109 25.877 141.381 25.373C141.653 24.861 142.025 24.465 142.497 24.185C142.977 23.905 143.509 23.765 144.093 23.765C144.669 23.765 145.169 23.889 145.593 24.137C146.017 24.385 146.333 24.697 146.541 25.073V23.873H147.645V30.449H146.541V29.225C146.325 29.609 146.001 29.929 145.569 30.185C145.145 30.433 144.649 30.557 144.081 30.557C143.497 30.557 142.969 30.413 142.497 30.125C142.025 29.837 141.653 29.433 141.381 28.913C141.109 28.393 140.973 27.801 140.973 27.137ZM146.541 27.149C146.541 26.653 146.441 26.221 146.241 25.853C146.041 25.485 145.769 25.205 145.425 25.013C145.089 24.813 144.717 24.713 144.309 24.713C143.901 24.713 143.529 24.809 143.193 25.001C142.857 25.193 142.589 25.473 142.389 25.841C142.189 26.209 142.089 26.641 142.089 27.137C142.089 27.641 142.189 28.081 142.389 28.457C142.589 28.825 142.857 29.109 143.193 29.309C143.529 29.501 143.901 29.597 144.309 29.597C144.717 29.597 145.089 29.501 145.425 29.309C145.769 29.109 146.041 28.825 146.241 28.457C146.441 28.081 146.541 27.645 146.541 27.149ZM150.822 24.773V28.649C150.822 28.969 150.89 29.197 151.026 29.333C151.162 29.461 151.398 29.525 151.734 29.525H152.538V30.449H151.554C150.946 30.449 150.49 30.309 150.186 30.029C149.882 29.749 149.73 29.289 149.73 28.649V24.773H148.878V23.873H149.73V22.217H150.822V23.873H152.538V24.773H150.822ZM154.426 22.805C154.218 22.805 154.042 22.733 153.898 22.589C153.754 22.445 153.682 22.269 153.682 22.061C153.682 21.853 153.754 21.677 153.898 21.533C154.042 21.389 154.218 21.317 154.426 21.317C154.626 21.317 154.794 21.389 154.93 21.533C155.074 21.677 155.146 21.853 155.146 22.061C155.146 22.269 155.074 22.445 154.93 22.589C154.794 22.733 154.626 22.805 154.426 22.805ZM154.954 23.873V30.449H153.862V23.873H154.954ZM159.263 29.441L161.303 23.873H162.467L159.887 30.449H158.615L156.035 23.873H157.211L159.263 29.441ZM164.105 22.805C163.897 22.805 163.721 22.733 163.577 22.589C163.433 22.445 163.361 22.269 163.361 22.061C163.361 21.853 163.433 21.677 163.577 21.533C163.721 21.389 163.897 21.317 164.105 21.317C164.305 21.317 164.473 21.389 164.609 21.533C164.753 21.677 164.825 21.853 164.825 22.061C164.825 22.269 164.753 22.445 164.609 22.589C164.473 22.733 164.305 22.805 164.105 22.805ZM164.633 23.873V30.449H163.541V23.873H164.633ZM167.826 24.773V28.649C167.826 28.969 167.894 29.197 168.03 29.333C168.166 29.461 168.402 29.525 168.738 29.525H169.542V30.449H168.558C167.95 30.449 167.494 30.309 167.19 30.029C166.886 29.749 166.734 29.289 166.734 28.649V24.773H165.882V23.873H166.734V22.217H167.826V23.873H169.542V24.773H167.826ZM176.529 23.873L172.569 33.545H171.441L172.737 30.377L170.085 23.873H171.297L173.361 29.201L175.401 23.873H176.529Z" fill="white"/>
</svg>
